<?xml version="1.0" standalone="no"?>
<!DOCTYPE svg PUBLIC "-//W3C//DTD SVG 20010904//EN"
 "http://www.w3.org/TR/2001/REC-SVG-20010904/DTD/svg10.dtd">
<svg version="1.0" xmlns="http://www.w3.org/2000/svg"
 width="200.000000pt" height="200.000000pt" viewBox="0 0 200.000000 200.000000"
 preserveAspectRatio="xMidYMid meet">
<metadata>
Created by potrace 1.11, written by Peter Selinger 2001-2013
</metadata>
<g transform="translate(0.000000,200.000000) scale(0.100000,-0.100000)"
fill="#000000" stroke="none">
<path d="M275 1832 c-4 -4 -10 -7 -13 -8 -34 -4 -66 -22 -94 -52 -45 -50 -62
-90 -47 -108 10 -12 9 -13 -6 -8 -15 6 -16 1 -11 -51 6 -61 35 -122 55 -117 7
1 10 -1 7 -6 -17 -28 101 -83 165 -76 33 3 38 0 49 -26 9 -22 10 -37 2 -57
-51 -131 -59 -306 -22 -456 16 -62 3 -81 -49 -71 -51 9 -66 7 -106 -11 -123
-59 -138 -226 -26 -301 25 -16 49 -24 61 -21 11 3 23 1 26 -4 7 -11 38 -6 85
14 42 17 94 80 85 102 -3 8 -1 15 4 15 6 0 10 17 10 37 l0 38 26 -40 c15 -22
61 -74 102 -115 41 -41 78 -84 83 -97 4 -12 11 -73 14 -134 6 -126 14 -156 16
-58 1 35 2 88 3 116 4 75 -14 116 -81 186 -64 67 -108 127 -142 195 -20 38
-20 44 -6 58 8 9 12 20 9 26 -4 6 -3 8 3 5 5 -4 20 5 32 19 16 19 27 23 49 18
67 -15 138 5 173 49 l16 20 68 -27 c37 -15 74 -25 82 -22 8 3 12 2 9 -2 -3 -5
11 -14 30 -21 31 -11 34 -16 34 -52 0 -22 3 -38 8 -36 4 3 7 -8 8 -24 3 -71
123 -156 206 -146 62 8 98 18 98 28 0 5 6 9 13 9 39 0 107 124 101 185 -7 71
-55 161 -81 151 -7 -3 -12 0 -10 6 4 20 -62 48 -121 50 -48 2 -66 -3 -108 -27
-53 -31 -66 -44 -57 -59 3 -5 1 -6 -5 -2 -6 3 -13 2 -17 -4 -4 -6 -12 -6 -23
0 -26 14 -175 70 -188 70 -7 0 -14 15 -17 33 -10 65 -17 81 -50 111 -38 34
-97 61 -97 44 0 -7 -5 -6 -14 1 -7 6 -21 9 -30 5 -9 -3 -16 -1 -16 6 0 6 -5 8
-12 4 -7 -4 -8 -3 -4 4 8 13 -21 82 -38 94 -6 4 -8 8 -3 8 4 0 1 13 -8 30 -8
16 -15 36 -15 45 0 24 57 103 113 157 135 133 303 202 487 200 198 -2 378 -80
506 -219 49 -54 69 -107 88 -235 13 -88 21 -108 80 -218 36 -67 66 -127 66
-135 0 -7 -34 -44 -76 -82 l-76 -69 -2 -135 c-2 -151 -9 -173 -66 -189 -47
-13 -178 -13 -259 1 -83 14 -136 31 -211 69 -33 17 -60 28 -60 25 0 -3 27 -23
61 -45 108 -70 260 -107 425 -104 57 1 78 6 103 23 49 35 59 66 66 201 l7 124
41 35 c23 20 59 52 80 72 55 54 51 82 -28 238 -50 99 -66 142 -71 187 -9 91
-32 184 -56 223 -52 88 -184 198 -300 250 -279 126 -627 67 -839 -143 l-37
-36 0 42 c-1 87 -33 146 -103 192 -37 23 -87 37 -95 25 -3 -5 -11 -6 -17 -2
-17 10 -34 12 -42 5z m122 -121 c41 -38 53 -80 38 -125 -16 -45 -32 -65 -65
-78 -26 -11 -110 -17 -106 -8 2 6 -62 69 -66 64 -2 -2 -3 22 -1 52 1 33 8 61
18 70 8 9 12 21 8 27 -3 7 -3 9 1 6 4 -4 23 1 42 10 45 22 96 16 131 -18z m69
-517 l24 -55 -26 -34 c-14 -19 -24 -42 -23 -52 1 -10 -1 -26 -6 -35 -4 -10 -4
-26 0 -35 5 -10 9 -22 11 -28 1 -5 5 -18 9 -27 4 -10 -2 -25 -16 -39 l-23 -23
-8 34 c-22 100 -2 350 28 350 3 0 16 -25 30 -56z m19 47 c3 -5 2 -12 -3 -15
-5 -3 -9 1 -9 9 0 17 3 19 12 6z m186 -180 c12 -23 21 -106 11 -96 -2 2 -13
-5 -25 -16 -25 -23 -64 -25 -93 -4 -12 8 -23 12 -26 10 -4 -4 -8 24 -8 65 -1
64 113 97 141 41z m629 -135 c0 -2 -8 -10 -17 -17 -16 -13 -17 -12 -4 4 13 16
21 21 21 13z m-55 -22 c56 -26 82 -103 54 -157 -15 -29 -58 -67 -78 -68 -60
-4 -88 -3 -84 4 2 4 0 7 -5 7 -5 0 -21 11 -35 25 -32 33 -42 84 -23 128 11 27
11 38 3 48 -10 11 -9 11 5 1 12 -10 18 -10 23 -2 19 31 90 38 140 14z m-907
-230 c42 -48 4 -124 -62 -124 -35 1 -57 15 -74 47 -12 21 -10 38 10 80 20 41
89 39 126 -3z m-173 -82 c-3 -3 -11 0 -18 7 -9 10 -8 11 6 5 10 -3 15 -9 12
-12z"/>
</g>
</svg>
